<svg width="50" height="50" viewBox="0 0 50 50" fill="none" xmlns="http://www.w3.org/2000/svg">
<path d="M42.6156 7.38426L47.8531 8.43113C48.1344 8.48738 48.3656 8.69363 48.4469 8.97176C48.4879 9.10686 48.4916 9.25056 48.4574 9.38758C48.4233 9.52459 48.3527 9.6498 48.2531 9.74988L43.9625 14.0436C43.4484 14.5549 42.7532 14.8424 42.0281 14.8436H38.4688L29.5312 23.7843C29.7018 24.4281 29.7331 25.1008 29.6232 25.7577C29.5133 26.4146 29.2647 27.0405 28.894 27.5938C28.5232 28.1471 28.0388 28.615 27.473 28.9664C26.9072 29.3178 26.2731 29.5445 25.6128 29.6316C24.9525 29.7187 24.2812 29.664 23.6437 29.4713C23.0062 29.2786 22.417 28.9523 21.9155 28.514C21.414 28.0758 21.0116 27.5357 20.7352 26.9297C20.4588 26.3238 20.3147 25.6659 20.3125 24.9999C20.3123 24.2806 20.4777 23.5709 20.7959 22.9258C21.114 22.2806 21.5763 21.7174 22.147 21.2796C22.7178 20.8418 23.3816 20.5412 24.0871 20.4011C24.7926 20.2611 25.5209 20.2852 26.2156 20.4718L35.1562 11.528V7.97488C35.1562 7.24988 35.4437 6.55301 35.9562 6.04051L40.25 1.74676C40.3501 1.64716 40.4753 1.57655 40.6123 1.54243C40.7493 1.50832 40.893 1.51197 41.0281 1.55301C41.3062 1.63426 41.5125 1.86551 41.5688 2.14676L42.6156 7.38426Z" fill="#F5920B"/>
<path d="M6.25004 25C6.25325 27.6811 6.83143 30.3304 7.94556 32.7691C9.0597 35.2077 10.6839 37.3791 12.7086 39.1367C14.7332 40.8943 17.1113 42.1973 19.6823 42.9577C22.2534 43.718 24.9576 43.9182 27.6126 43.5446C30.2676 43.1711 32.8115 42.2324 35.0729 40.7921C37.3343 39.3517 39.2605 37.4431 40.7215 35.195C42.1825 32.947 43.1445 30.4117 43.5424 27.7603C43.9403 25.1088 43.7649 22.4029 43.0282 19.825C42.9247 19.5238 42.8837 19.2047 42.9075 18.8872C42.9313 18.5696 43.0195 18.2602 43.1667 17.9778C43.3139 17.6955 43.517 17.446 43.7637 17.2446C44.0104 17.0432 44.2954 16.8942 44.6016 16.8065C44.9077 16.7188 45.2285 16.6943 45.5444 16.7346C45.8603 16.7748 46.1647 16.8789 46.4391 17.0406C46.7134 17.2022 46.952 17.418 47.1403 17.6748C47.3287 17.9316 47.4627 18.2241 47.5344 18.5344C48.9611 23.5266 48.6901 28.8513 46.764 33.6729C44.8378 38.4945 41.3656 42.5404 36.892 45.1756C32.4183 47.8109 27.1964 48.8865 22.0455 48.2337C16.8946 47.5809 12.1061 45.2367 8.43129 41.5687C4.76049 37.8948 2.41371 33.1059 1.75943 27.9538C1.10514 22.8017 2.18039 17.5782 4.81636 13.1033C7.45233 8.62852 11.4997 5.15581 16.3232 3.23042C21.1466 1.30504 26.4728 1.03603 31.4657 2.46561C32.0602 2.6394 32.5617 3.04145 32.8607 3.5839C33.1597 4.12635 33.2318 4.76509 33.0612 5.36054C32.8907 5.95598 32.4914 6.45971 31.9506 6.76164C31.4097 7.06357 30.7714 7.13915 30.175 6.97186C27.3831 6.17014 24.443 6.02807 21.5868 6.55686C18.7305 7.08566 16.0362 8.27084 13.7163 10.019C11.3964 11.7671 9.51435 14.0303 8.21866 16.6301C6.92297 19.2299 6.24905 22.0952 6.25004 25Z" fill="#F5920B"/>
<path d="M15.625 24.9999C15.6252 26.708 16.0917 28.3836 16.9743 29.8461C17.8568 31.3085 19.1219 32.5022 20.6331 33.2985C22.1442 34.0947 23.8441 34.4633 25.5493 34.3644C27.2545 34.2655 28.9004 33.703 30.3094 32.7374C31.7181 31.7694 32.8354 30.4347 33.5404 28.8776C34.2455 27.3205 34.5114 25.6003 34.3094 23.903C34.2548 23.4912 34.3109 23.0722 34.4721 22.6892C34.6332 22.3063 34.8935 21.9732 35.2261 21.7242C35.5588 21.4753 35.9518 21.3195 36.3646 21.273C36.7775 21.2264 37.1953 21.2907 37.575 21.4593C37.9547 21.6257 38.2834 21.8898 38.5277 22.2247C38.772 22.5595 38.9231 22.9532 38.9657 23.3655C39.3052 26.2659 38.7335 29.1999 37.3298 31.7606C35.9261 34.3212 33.7601 36.3813 31.1324 37.655C28.5047 38.9287 25.5456 39.3528 22.666 38.8684C19.7863 38.3841 17.1288 37.0153 15.0624 34.952C12.996 32.8887 11.6232 30.2333 11.1344 27.3544C10.6457 24.4755 11.0653 21.5158 12.335 18.8862C13.6047 16.2565 15.6615 14.0874 18.22 12.6798C20.7785 11.2722 23.7117 10.696 26.6125 11.0312C26.9231 11.06 27.2249 11.1505 27.5 11.2975C27.7752 11.4444 28.0183 11.6448 28.215 11.8869C28.4117 12.129 28.5581 12.4079 28.6456 12.7074C28.7331 13.0068 28.76 13.3206 28.7246 13.6306C28.6893 13.9405 28.5924 14.2403 28.4397 14.5123C28.287 14.7843 28.0815 15.0231 27.8353 15.2146C27.5891 15.4062 27.3072 15.5467 27.006 15.6279C26.7048 15.7091 26.3904 15.7293 26.0813 15.6874C24.7677 15.5349 23.4367 15.662 22.1758 16.0604C20.9148 16.4588 19.7524 17.1194 18.7649 17.9989C17.7773 18.8784 16.9871 19.9569 16.4459 21.1635C15.9048 22.3701 15.625 23.6775 15.625 24.9999Z" fill="#F5920B"/>
</svg>
