<svg width="50" height="50" viewBox="0 0 50 50" fill="none" xmlns="http://www.w3.org/2000/svg">
<path d="M39.5833 25C39.5833 25.5525 39.3638 26.0824 38.9731 26.4731C38.5824 26.8638 38.0525 27.0833 37.5 27.0833C36.9474 27.0833 36.4175 26.8638 36.0268 26.4731C35.6361 26.0824 35.4166 25.5525 35.4166 25C35.4166 24.4474 35.6361 23.9175 36.0268 23.5268C36.4175 23.1361 36.9474 22.9166 37.5 22.9166C38.0525 22.9166 38.5824 23.1361 38.9731 23.5268C39.3638 23.9175 39.5833 24.4474 39.5833 25Z" fill="#00FF00"/>
<path fill-rule="evenodd" clip-rule="evenodd" d="M20.7166 6.77087H27.2C31.0291 6.77087 34.0625 6.77087 36.4354 7.08962C38.877 7.41879 40.8541 8.11046 42.4145 9.66879C44.3395 11.5959 44.9541 14.175 45.177 17.523C46.3791 18.05 47.2875 19.1688 47.3854 20.5855C47.3958 20.7125 47.3958 20.848 47.3958 20.973V29.0271C47.3958 29.1521 47.3958 29.2875 47.3875 29.4125C47.2875 30.8292 46.3791 31.95 45.177 32.4792C44.9541 35.825 44.3395 38.4042 42.4145 40.3313C40.8541 41.8896 38.877 42.5813 36.4354 42.9105C34.0604 43.2292 31.0291 43.2292 27.2 43.2292H20.7166C16.8875 43.2292 13.8541 43.2292 11.4812 42.9105C9.03954 42.5813 7.06246 41.8896 5.50204 40.3313C3.94371 38.7709 3.25204 36.7938 2.92288 34.3521C2.60413 31.9771 2.60413 28.9459 2.60413 25.1167V24.8834C2.60413 21.0542 2.60413 18.0209 2.92288 15.648C3.25204 13.2063 3.94371 11.2292 5.50204 9.66879C7.06246 8.11046 9.03954 7.41879 11.4812 7.08962C13.8562 6.77087 16.8875 6.77087 20.7166 6.77087ZM42.0166 32.8125H37.9791C33.5104 32.8125 29.6854 29.4209 29.6854 25C29.6854 20.5792 33.5104 17.1875 37.977 17.1875H42.0145C41.777 14.3938 41.2416 12.9167 40.202 11.8792C39.3208 10.998 38.1125 10.4688 36.0166 10.1875C33.877 9.90004 31.0541 9.89587 27.0812 9.89587H20.8312C16.8583 9.89587 14.0375 9.90004 11.8937 10.1875C9.79996 10.4688 8.59163 10.998 7.71038 11.8792C6.82913 12.7605 6.30204 13.9688 6.02079 16.0625C5.73329 18.2042 5.72913 21.025 5.72913 24.998C5.72913 28.9709 5.73329 31.7938 6.02079 33.9355C6.30204 36.0292 6.83121 37.2375 7.71246 38.1188C8.59371 39 9.80204 39.5292 11.8979 39.8105C14.0395 40.098 16.8604 40.1021 20.8333 40.1021H27.0833C31.0562 40.1021 33.8791 40.098 36.0208 39.8105C38.1145 39.5292 39.3229 39 40.2041 38.1188C41.2437 37.0813 41.7791 35.6063 42.0166 32.8105M10.9375 16.6667C10.9375 16.2523 11.1021 15.8549 11.3951 15.5619C11.6881 15.2688 12.0856 15.1042 12.5 15.1042H20.8333C21.2477 15.1042 21.6451 15.2688 21.9381 15.5619C22.2312 15.8549 22.3958 16.2523 22.3958 16.6667C22.3958 17.0811 22.2312 17.4785 21.9381 17.7716C21.6451 18.0646 21.2477 18.2292 20.8333 18.2292H12.5C12.0856 18.2292 11.6881 18.0646 11.3951 17.7716C11.1021 17.4785 10.9375 17.0811 10.9375 16.6667ZM43.5916 20.3125H37.9791C35.0125 20.3125 32.8104 22.5188 32.8104 25C32.8104 27.4813 35.0125 29.6875 37.977 29.6875H43.6395C44.0687 29.6605 44.2541 29.3709 44.2687 29.1959V20.8042C44.2541 20.6292 44.0687 20.3396 43.6395 20.3146L43.5916 20.3125Z" fill="#00FF00"/>
</svg>
