<svg width="50" height="50" viewBox="0 0 50 50" fill="none" xmlns="http://www.w3.org/2000/svg">
<g clip-path="url(#clip0_22_112)">
<path d="M18.5969 0.778076L21.6625 0.168701L22.2719 3.23433L19.2063 3.8437L18.5969 0.778076ZM27.7406 46.7687L30.8062 46.1593L31.4156 49.225L28.35 49.8343L27.7406 46.7687ZM0.171875 28.3468L3.2375 27.7375L3.84687 30.8031L0.78125 31.4125L0.171875 28.3468ZM46.1656 19.2031L49.2312 18.5937L49.8406 21.6593L46.775 22.2687L46.1656 19.2031ZM35.8469 5.92808L37.5844 3.3312L40.1812 5.0687L38.4437 7.66558L35.8469 5.92808ZM9.80937 45.1281L11.5594 42.5343L14.1531 44.2843L12.4031 46.8781L9.80937 45.1281ZM3.34063 12.4656L5.09062 9.87183L7.68438 11.6218L5.93438 14.2156L3.34063 12.4656ZM42.3344 38.4343L44.0719 35.8375L46.6688 37.575L44.9313 40.1718L42.3344 38.4343ZM27.7344 3.24683L28.3437 0.181201L31.4094 0.790576L30.8 3.8562L27.7344 3.24683ZM18.6031 49.2031L19.2125 46.1375L22.2781 46.7468L21.6688 49.8125L18.6031 49.2031ZM0.190625 21.6593L0.8 18.5937L3.86563 19.2031L3.25625 22.2687L0.190625 21.6593ZM46.1469 30.7937L46.7562 27.7281L49.8219 28.3375L49.2125 31.4031L46.1469 30.7937ZM9.80937 5.08745L12.4062 3.34995L14.1438 5.94683L11.5469 7.68433L9.80937 5.08745ZM35.8656 44.0656L38.4625 42.3281L40.2 44.925L37.6031 46.6625L35.8656 44.0656ZM3.34688 37.6031L5.94375 35.8656L7.68125 38.4625L5.08437 40.2L3.34688 37.6031ZM42.3094 11.3437L44.9031 9.5937L46.6531 12.1875L44.0594 13.9375L42.3094 11.3437Z" fill="#F5920B"/>
<path d="M43.75 25C43.748 22.1883 43.1126 19.4132 41.891 16.8808C40.6694 14.3484 38.893 12.1236 36.6938 10.3719L26.3125 25.9687L23.6875 24.125L34.0625 8.49999C31.2912 6.95936 28.1708 6.1556 25 6.16562C21.2955 6.16566 17.674 7.26308 14.5926 9.31938C11.5111 11.3757 9.1079 14.2987 7.68613 17.7195C6.26436 21.1404 5.8878 24.9057 6.60396 28.5404C7.32011 32.175 9.0969 35.5161 11.7101 38.1419C14.3233 40.7677 17.6557 42.5606 21.2869 43.2942C24.918 44.0279 28.6851 43.6695 32.1128 42.2642C35.5404 40.859 38.475 38.4699 40.5461 35.3984C42.6173 32.3269 43.7321 28.7107 43.75 25.0062V25Z" fill="#F5920B"/>
</g>
<defs>
<clipPath id="clip0_22_112">
<rect width="50" height="50" fill="white"/>
</clipPath>
</defs>
</svg>
