<svg width="50" height="50" viewBox="0 0 50 50" fill="none" xmlns="http://www.w3.org/2000/svg">
<path d="M13.3333 21.875H23.3333V50H13.3333V21.875ZM16.6667 46.875H20V25H16.6667V46.875ZM26.6667 28.125H36.6667V50H26.6667V28.125ZM30 46.875H33.3333V31.25H30V46.875ZM0 34.375H10V50H0V34.375ZM3.33333 46.875H6.66667V37.5H3.33333V46.875ZM40 15.625H50V50H40V15.625ZM43.3333 46.875H46.6667V18.75H43.3333V46.875ZM36.1719 15.1611C36.5017 15.8285 36.6667 16.5039 36.6667 17.1875C36.6667 17.8385 36.5365 18.4489 36.276 19.0186C36.0156 19.5882 35.6597 20.0846 35.2083 20.5078C34.7569 20.931 34.2274 21.2646 33.6198 21.5088C33.0122 21.7529 32.3611 21.875 31.6667 21.875C30.9722 21.875 30.3212 21.7529 29.7135 21.5088C29.1059 21.2646 28.5764 20.931 28.125 20.5078C27.6736 20.0846 27.3177 19.5882 27.0573 19.0186C26.7969 18.4489 26.6667 17.8385 26.6667 17.1875V16.8945C26.6667 16.7969 26.6753 16.6992 26.6927 16.6016L21.7969 14.3066C21.3455 14.7298 20.816 15.0553 20.2083 15.2832C19.6007 15.5111 18.9757 15.625 18.3333 15.625C17.6042 15.625 16.8837 15.4704 16.1719 15.1611L9.50521 21.4111C9.83507 22.0785 10 22.7539 10 23.4375C10 24.0885 9.86979 24.6989 9.60938 25.2686C9.34896 25.8382 8.99306 26.3346 8.54167 26.7578C8.09028 27.181 7.56076 27.5146 6.95312 27.7588C6.34549 28.0029 5.69444 28.125 5 28.125C4.30556 28.125 3.65451 28.0029 3.04688 27.7588C2.43924 27.5146 1.90972 27.181 1.45833 26.7578C1.00694 26.3346 0.651042 25.8382 0.390625 25.2686C0.130208 24.6989 0 24.0885 0 23.4375C0 22.7865 0.130208 22.1761 0.390625 21.6064C0.651042 21.0368 1.00694 20.5404 1.45833 20.1172C1.90972 19.694 2.43924 19.3604 3.04688 19.1162C3.65451 18.8721 4.30556 18.75 5 18.75C5.72917 18.75 6.44965 18.9046 7.16146 19.2139L13.8281 12.9639C13.4983 12.2965 13.3333 11.6211 13.3333 10.9375C13.3333 10.2865 13.4635 9.67611 13.724 9.10645C13.9844 8.53678 14.3403 8.04036 14.7917 7.61719C15.2431 7.19401 15.7726 6.86035 16.3802 6.61621C16.9878 6.37207 17.6389 6.25 18.3333 6.25C19.0278 6.25 19.6788 6.37207 20.2865 6.61621C20.8941 6.86035 21.4236 7.19401 21.875 7.61719C22.3264 8.04036 22.6823 8.53678 22.9427 9.10645C23.2031 9.67611 23.3333 10.2865 23.3333 10.9375V11.2305C23.3333 11.3281 23.3247 11.4258 23.3073 11.5234L28.2031 13.8184C28.6545 13.3952 29.184 13.0697 29.7917 12.8418C30.3993 12.6139 31.0243 12.5 31.6667 12.5C32.3958 12.5 33.1163 12.6546 33.8281 12.9639L40.4948 6.71387C40.1649 6.04655 40 5.37109 40 4.6875C40 4.03646 40.1302 3.42611 40.3906 2.85645C40.651 2.28678 41.0069 1.79036 41.4583 1.36719C41.9097 0.94401 42.4392 0.610352 43.0469 0.366211C43.6545 0.12207 44.3056 0 45 0C45.6944 0 46.3455 0.12207 46.9531 0.366211C47.5608 0.610352 48.0903 0.94401 48.5417 1.36719C48.9931 1.79036 49.349 2.28678 49.6094 2.85645C49.8698 3.42611 50 4.03646 50 4.6875C50 5.33854 49.8698 5.94889 49.6094 6.51855C49.349 7.08822 48.9931 7.58464 48.5417 8.00781C48.0903 8.43099 47.5608 8.76465 46.9531 9.00879C46.3455 9.25293 45.6944 9.375 45 9.375C44.2708 9.375 43.5503 9.22038 42.8385 8.91113L36.1719 15.1611ZM5 25C5.45139 25 5.84201 24.8454 6.17188 24.5361C6.50174 24.2269 6.66667 23.8607 6.66667 23.4375C6.66667 23.0143 6.50174 22.6481 6.17188 22.3389C5.84201 22.0296 5.45139 21.875 5 21.875C4.54861 21.875 4.15799 22.0296 3.82812 22.3389C3.49826 22.6481 3.33333 23.0143 3.33333 23.4375C3.33333 23.8607 3.49826 24.2269 3.82812 24.5361C4.15799 24.8454 4.54861 25 5 25ZM45 3.125C44.5486 3.125 44.158 3.27962 43.8281 3.58887C43.4983 3.89811 43.3333 4.26432 43.3333 4.6875C43.3333 5.11068 43.4983 5.47689 43.8281 5.78613C44.158 6.09538 44.5486 6.25 45 6.25C45.4514 6.25 45.842 6.09538 46.1719 5.78613C46.5017 5.47689 46.6667 5.11068 46.6667 4.6875C46.6667 4.26432 46.5017 3.89811 46.1719 3.58887C45.842 3.27962 45.4514 3.125 45 3.125ZM18.3333 12.5C18.7847 12.5 19.1753 12.3454 19.5052 12.0361C19.8351 11.7269 20 11.3607 20 10.9375C20 10.5143 19.8351 10.1481 19.5052 9.83887C19.1753 9.52962 18.7847 9.375 18.3333 9.375C17.8819 9.375 17.4913 9.52962 17.1615 9.83887C16.8316 10.1481 16.6667 10.5143 16.6667 10.9375C16.6667 11.3607 16.8316 11.7269 17.1615 12.0361C17.4913 12.3454 17.8819 12.5 18.3333 12.5ZM31.6667 18.75C32.1181 18.75 32.5087 18.5954 32.8385 18.2861C33.1684 17.9769 33.3333 17.6107 33.3333 17.1875C33.3333 16.7643 33.1684 16.3981 32.8385 16.0889C32.5087 15.7796 32.1181 15.625 31.6667 15.625C31.2153 15.625 30.8247 15.7796 30.4948 16.0889C30.1649 16.3981 30 16.7643 30 17.1875C30 17.6107 30.1649 17.9769 30.4948 18.2861C30.8247 18.5954 31.2153 18.75 31.6667 18.75Z" fill="#20E34A"/>
</svg>
