<svg width="64" height="64" viewBox="0 0 64 64" fill="none" xmlns="http://www.w3.org/2000/svg">
  <rect width="64" height="64" rx="18" fill="url(#bg)"/>
  <path d="M18 23.5C18 20.4624 20.4624 18 23.5 18H43.5C46.5376 18 49 20.4624 49 23.5V27.5C49 28.8807 47.8807 30 46.5 30H44C41.7909 30 40 31.7909 40 34C40 36.2091 41.7909 38 44 38H46.5C47.8807 38 49 39.1193 49 40.5V42.5C49 45.5376 46.5376 48 43.5 48H23.5C20.4624 48 18 45.5376 18 42.5V23.5Z" fill="#FFF7F1"/>
  <path d="M40 34C40 31.7909 41.7909 30 44 30H49V38H44C41.7909 38 40 36.2091 40 34Z" fill="#F6BF73"/>
  <circle cx="44.5" cy="34" r="2.5" fill="#B8582F"/>
  <defs>
    <linearGradient id="bg" x1="8" y1="8" x2="56" y2="56" gradientUnits="userSpaceOnUse">
      <stop stop-color="#F5B36B"/>
      <stop offset="1" stop-color="#DC7241"/>
    </linearGradient>
  </defs>
</svg>
